<svg xmlns="http://www.w3.org/2000/svg" xmlns:xlink="http://www.w3.org/1999/xlink" width="750" zoomAndPan="magnify" viewBox="0 0 562.5 562.499982" height="750" preserveAspectRatio="xMidYMid meet" version="1.0"><defs><g/><clipPath id="736aaeaabd"><path d="M 312 303 L 471 303 L 471 414 L 312 414 Z M 312 303 " clip-rule="nonzero"/></clipPath><clipPath id="4888cae56b"><path d="M 364.691406 239.859375 L 554.4375 360.773438 L 502.441406 442.367188 L 312.695312 321.449219 Z M 364.691406 239.859375 " clip-rule="nonzero"/></clipPath><clipPath id="f67de3db99"><path d="M 364.691406 239.859375 L 554.4375 360.773438 L 502.441406 442.367188 L 312.695312 321.449219 Z M 364.691406 239.859375 " clip-rule="nonzero"/></clipPath><clipPath id="fa6c54569f"><path d="M 364.691406 239.859375 L 554.4375 360.773438 L 502.441406 442.367188 L 312.695312 321.449219 Z M 364.691406 239.859375 " clip-rule="nonzero"/></clipPath><clipPath id="86055c3465"><path d="M 312 303 L 385 303 L 385 360 L 312 360 Z M 312 303 " clip-rule="nonzero"/></clipPath><clipPath id="7582bbf344"><path d="M 364.691406 239.859375 L 554.4375 360.773438 L 502.441406 442.367188 L 312.695312 321.449219 Z M 364.691406 239.859375 " clip-rule="nonzero"/></clipPath><clipPath id="995f0633a4"><path d="M 364.691406 239.859375 L 554.4375 360.773438 L 502.441406 442.367188 L 312.695312 321.449219 Z M 364.691406 239.859375 " clip-rule="nonzero"/></clipPath><clipPath id="7a1f0a9149"><path d="M 364.691406 239.859375 L 554.4375 360.773438 L 502.441406 442.367188 L 312.695312 321.449219 Z M 364.691406 239.859375 " clip-rule="nonzero"/></clipPath><clipPath id="306ea7db15"><path d="M 451 389 L 471 389 L 471 414 L 451 414 Z M 451 389 " clip-rule="nonzero"/></clipPath><clipPath id="9c4757c7e0"><path d="M 364.691406 239.859375 L 554.4375 360.773438 L 502.441406 442.367188 L 312.695312 321.449219 Z M 364.691406 239.859375 " clip-rule="nonzero"/></clipPath><clipPath id="05e4679fad"><path d="M 364.691406 239.859375 L 554.4375 360.773438 L 502.441406 442.367188 L 312.695312 321.449219 Z M 364.691406 239.859375 " clip-rule="nonzero"/></clipPath><clipPath id="65c134146e"><path d="M 364.691406 239.859375 L 554.4375 360.773438 L 502.441406 442.367188 L 312.695312 321.449219 Z M 364.691406 239.859375 " clip-rule="nonzero"/></clipPath><clipPath id="dd0854cabc"><path d="M 468 351 L 550 351 L 550 424 L 468 424 Z M 468 351 " clip-rule="nonzero"/></clipPath><clipPath id="dab18499b8"><path d="M 364.691406 239.859375 L 554.4375 360.773438 L 502.441406 442.367188 L 312.695312 321.449219 Z M 364.691406 239.859375 " clip-rule="nonzero"/></clipPath><clipPath id="ef2f734920"><path d="M 364.691406 239.859375 L 554.4375 360.773438 L 502.441406 442.367188 L 312.695312 321.449219 Z M 364.691406 239.859375 " clip-rule="nonzero"/></clipPath><clipPath id="1853be6654"><path d="M 364.691406 239.859375 L 554.4375 360.773438 L 502.441406 442.367188 L 312.695312 321.449219 Z M 364.691406 239.859375 " clip-rule="nonzero"/></clipPath><clipPath id="e16af9f859"><path d="M 14 3 L 436 3 L 436 436.460938 L 14 436.460938 Z M 14 3 " clip-rule="nonzero"/></clipPath></defs><g clip-path="url(#736aaeaabd)"><g clip-path="url(#4888cae56b)"><g clip-path="url(#f67de3db99)"><g clip-path="url(#fa6c54569f)"><path fill="#efe0cd" d="M 470.523438 393.730469 L 457.769531 413.742188 L 367.660156 356.316406 L 312.765625 321.335938 L 324.386719 303.101562 L 422.367188 362.984375 L 470.550781 393.6875 Z M 470.523438 393.730469 " fill-opacity="1" fill-rule="nonzero"/></g></g></g></g><g clip-path="url(#86055c3465)"><g clip-path="url(#7582bbf344)"><g clip-path="url(#995f0633a4)"><g clip-path="url(#7a1f0a9149)"><path fill="#d6b68f" d="M 373.144531 359.871094 L 367.636719 356.359375 L 312.742188 321.378906 L 324.359375 303.144531 L 384.316406 339.78125 Z M 373.144531 359.871094 " fill-opacity="1" fill-rule="nonzero"/></g></g></g></g><g clip-path="url(#306ea7db15)"><g clip-path="url(#9c4757c7e0)"><g clip-path="url(#05e4679fad)"><g clip-path="url(#65c134146e)"><path fill="#fd5d42" d="M 470.523438 393.730469 L 464.597656 389.953125 C 462.410156 392.746094 457.628906 398.882812 457.3125 399.378906 C 456.890625 400.039062 453.566406 406.351562 453.566406 406.351562 L 451.695312 409.925781 L 457.746094 413.78125 Z M 470.523438 393.730469 " fill-opacity="1" fill-rule="nonzero"/></g></g></g></g><g clip-path="url(#dd0854cabc)"><g clip-path="url(#dab18499b8)"><g clip-path="url(#ef2f734920)"><g clip-path="url(#1853be6654)"><path fill="#aeaeae" d="M 468.097656 406.3125 C 472.460938 407.230469 487.683594 408.210938 492.898438 401.945312 C 498.117188 395.675781 497.457031 384.09375 500.566406 370.902344 C 503.671875 357.707031 523.84375 351.378906 526.867188 352.027344 C 527.945312 352.25 540.078125 353.875 540.078125 353.875 C 540.078125 353.875 548.632812 357.175781 549.449219 360.835938 C 550.730469 366.59375 525.804688 391.171875 525.804688 391.171875 L 510.125 396.761719 C 510.125 396.761719 505.929688 409.199219 503.136719 415.5 C 500.34375 421.800781 495.550781 423.746094 495.550781 423.746094 L 482.78125 420.203125 Z M 468.097656 406.3125 " fill-opacity="1" fill-rule="nonzero"/></g></g></g></g><g clip-path="url(#e16af9f859)"><path fill="#000000" d="M 434.445312 262.785156 C 431.910156 255.128906 425.289062 249.796875 416.726562 248.511719 C 412.691406 247.917969 408.066406 248.167969 402.597656 249.300781 C 393.0625 251.261719 385.984375 252.019531 380.8125 252.167969 C 400.308594 219.261719 416.167969 181.746094 425.289062 146.433594 C 440.046875 89.332031 432.15625 63.320312 422.9375 51.554688 C 398.5625 20.410156 362.976562 3.679688 320.0625 3.167969 C 297.171875 2.886719 277.066406 7.40625 266.59375 10.65625 C 256.828125 8.933594 246.320312 7.972656 235.320312 7.796875 C 214.667969 7.464844 196.421875 11.964844 180.84375 21.210938 C 172.210938 18.292969 158.363281 14.183594 142.371094 11.558594 C 104.753906 5.382812 74.4375 10.195312 52.261719 25.855469 C 25.410156 44.8125 12.964844 77.753906 15.265625 123.761719 C 15.996094 138.371094 24.171875 182.816406 37.042969 224.957031 C 44.4375 249.1875 52.328125 269.300781 60.488281 284.757812 C 72.058594 306.683594 84.441406 319.589844 98.339844 324.230469 C 106.132812 326.816406 120.289062 328.644531 135.175781 316.25 C 137.0625 318.519531 139.582031 320.792969 142.921875 322.898438 C 147.164062 325.582031 152.355469 327.769531 157.539062 329.054688 C 176.214844 333.730469 193.707031 332.5625 208.625 326.027344 C 208.726562 328.675781 208.789062 331.210938 208.855469 333.402344 C 208.957031 336.957031 209.054688 340.429688 209.1875 343.6875 C 210.058594 365.695312 211.558594 382.816406 216.003906 394.800781 C 216.25 395.457031 216.582031 396.460938 216.925781 397.515625 C 219.132812 404.296875 222.835938 415.65625 232.257812 424.542969 C 242.023438 433.746094 253.828125 436.558594 264.632812 436.558594 C 270.050781 436.558594 275.222656 435.851562 279.765625 434.882812 C 295.9375 431.425781 314.300781 426.140625 327.589844 407.226562 C 340.152344 389.351562 346.246094 362.4375 347.347656 320 C 347.496094 318.800781 347.628906 317.664062 347.761719 316.5625 C 347.84375 315.835938 347.925781 315.078125 348.023438 314.324219 L 350.988281 314.585938 L 351.746094 314.636719 C 368.214844 315.394531 388.355469 311.902344 400.722656 306.15625 C 410.503906 301.613281 441.824219 285.089844 434.445312 262.785156 " fill-opacity="1" fill-rule="nonzero"/></g><path fill="#336791" d="M 406.285156 267.113281 C 357.3125 277.21875 353.9375 260.644531 353.9375 260.644531 C 405.644531 183.9375 427.265625 86.585938 408.609375 62.769531 C 357.722656 -2.230469 269.621094 28.507812 268.15625 29.304688 L 267.679688 29.390625 C 258.011719 27.382812 247.175781 26.1875 235.007812 25.988281 C 212.84375 25.625 196.046875 31.792969 183.28125 41.464844 C 183.28125 41.464844 26.132812 -23.25 33.441406 122.851562 C 34.996094 153.933594 78.011719 358.027344 129.3125 296.382812 C 148.066406 273.847656 166.183594 254.785156 166.183594 254.785156 C 175.183594 260.761719 185.949219 263.804688 197.246094 262.71875 L 198.121094 261.960938 C 197.855469 264.761719 197.972656 267.511719 198.480469 270.753906 C 185.257812 285.5 189.144531 288.101562 162.722656 293.535156 C 135.988281 299.046875 151.695312 308.84375 161.949219 311.410156 C 174.378906 314.523438 203.144531 318.917969 222.574219 291.722656 L 221.800781 294.835938 C 226.972656 298.984375 230.609375 321.796875 230 342.488281 C 229.390625 363.179688 228.980469 377.386719 233.0625 388.480469 C 237.148438 399.574219 241.214844 424.53125 275.945312 417.089844 C 304.960938 410.882812 320.011719 394.769531 322.105469 367.886719 C 323.585938 348.792969 326.945312 351.609375 327.160156 334.539062 L 329.84375 326.441406 C 332.957031 300.546875 330.339844 292.183594 348.222656 296.070312 L 352.570312 296.464844 C 365.726562 297.058594 382.953125 294.339844 393.0625 289.648438 C 414.832031 279.542969 427.746094 262.6875 406.269531 267.113281 L 406.285156 267.113281 " fill-opacity="1" fill-rule="nonzero"/><path fill="#ffffff" d="M 192.488281 136.75 C 188.074219 136.136719 184.074219 136.707031 182.046875 138.238281 C 180.910156 139.097656 180.566406 140.09375 180.464844 140.78125 C 180.21875 142.601562 181.488281 144.613281 182.261719 145.648438 C 184.484375 148.585938 187.730469 150.605469 190.921875 151.046875 C 191.402344 151.113281 191.863281 151.144531 192.308594 151.144531 C 197.660156 151.144531 202.515625 146.984375 202.945312 143.914062 C 203.488281 140.070312 197.890625 137.503906 192.488281 136.75 " fill-opacity="1" fill-rule="nonzero"/><path fill="#ffffff" d="M 338.6875 136.875 C 338.257812 133.859375 332.90625 133 327.800781 133.707031 C 322.730469 134.417969 317.789062 136.710938 318.203125 139.730469 C 318.53125 142.082031 322.78125 146.089844 327.800781 146.089844 C 328.230469 146.089844 328.660156 146.0625 329.085938 146 C 332.429688 145.535156 334.898438 143.410156 336.070312 142.183594 C 337.847656 140.3125 338.867188 138.226562 338.6875 136.875 " fill-opacity="1" fill-rule="nonzero"/><path fill="#ffffff" d="M 422.574219 265.976562 C 420.710938 260.332031 414.703125 258.503906 404.707031 260.578125 C 375.0625 266.683594 364.441406 262.453125 360.953125 259.886719 C 384.007812 224.792969 402.960938 182.371094 413.1875 142.785156 C 418.042969 124.039062 420.710938 106.625 420.925781 92.433594 C 421.171875 76.855469 418.523438 65.410156 413.039062 58.417969 C 390.972656 30.226562 358.582031 15.105469 319.371094 14.691406 C 292.414062 14.386719 269.640625 21.285156 265.226562 23.222656 C 255.9375 20.914062 245.792969 19.492188 234.761719 19.3125 C 214.523438 18.984375 197.03125 23.828125 182.558594 33.699219 C 176.261719 31.359375 160.003906 25.78125 140.121094 22.578125 C 105.75 17.046875 78.4375 21.238281 58.949219 35.039062 C 35.691406 51.511719 24.953125 80.953125 27.03125 122.542969 C 27.734375 136.539062 35.710938 179.589844 48.296875 220.808594 C 64.867188 275.082031 82.878906 305.796875 101.832031 312.117188 C 104.046875 312.859375 106.609375 313.367188 109.425781 313.367188 C 116.339844 313.367188 124.816406 310.257812 133.632812 299.65625 C 148.28125 282.042969 161.957031 267.277344 167 261.910156 C 174.449219 265.910156 182.640625 268.148438 191.007812 268.363281 C 191.023438 268.59375 191.039062 268.808594 191.054688 269.023438 C 189.375 271.015625 188.007812 272.757812 186.824219 274.257812 C 181.027344 281.613281 179.824219 283.144531 161.152344 286.980469 C 155.84375 288.085938 141.738281 290.980469 141.53125 300.875 C 141.308594 311.671875 158.203125 316.199219 160.128906 316.675781 C 166.839844 318.355469 173.300781 319.195312 179.460938 319.195312 C 194.464844 319.195312 207.65625 314.273438 218.195312 304.742188 C 217.863281 343.226562 219.476562 381.171875 224.089844 392.726562 C 227.875 402.191406 237.132812 425.300781 266.363281 425.300781 C 270.644531 425.300781 275.371094 424.808594 280.558594 423.6875 C 311.054688 417.152344 324.292969 403.6875 329.433594 373.976562 C 332.167969 358.109375 336.875 320.183594 339.082031 299.855469 C 343.757812 301.300781 349.769531 301.976562 356.273438 301.976562 C 369.828125 301.976562 385.472656 299.097656 395.269531 294.535156 C 406.304688 289.433594 426.179688 276.875 422.574219 265.976562 Z M 349.953125 128.554688 C 349.835938 134.558594 349.011719 140.007812 348.140625 145.695312 C 347.203125 151.816406 346.230469 158.140625 345.984375 165.820312 C 345.734375 173.285156 346.675781 181.054688 347.578125 188.578125 C 349.390625 203.753906 351.269531 219.375 344.023438 234.800781 C 342.886719 232.792969 341.800781 230.621094 340.8125 228.199219 C 339.90625 226.011719 337.945312 222.503906 335.246094 217.648438 C 324.707031 198.769531 300.039062 154.527344 312.667969 136.476562 C 316.421875 131.105469 325.972656 125.578125 349.953125 128.554688 Z M 320.886719 26.847656 C 356.027344 27.625 383.808594 40.761719 403.488281 65.894531 C 418.570312 85.171875 401.957031 172.890625 353.855469 248.558594 C 353.375 247.949219 352.898438 247.339844 352.386719 246.714844 C 352.191406 246.46875 351.992188 246.203125 351.777344 245.957031 C 364.210938 225.429688 361.792969 205.136719 359.617188 187.125 C 358.730469 179.734375 357.890625 172.757812 358.101562 166.207031 C 358.332031 159.257812 359.253906 153.300781 360.128906 147.539062 C 361.230469 140.441406 362.335938 133.09375 362.039062 124.433594 C 362.269531 123.527344 362.351562 122.453125 362.234375 121.179688 C 361.445312 112.875 351.960938 88.019531 332.628906 65.523438 C 322.054688 53.21875 306.640625 39.449219 285.578125 30.164062 C 294.636719 28.285156 307.019531 26.535156 320.886719 26.84375 Z M 124.296875 291.898438 C 114.578125 303.570312 107.871094 301.332031 105.664062 300.609375 C 91.285156 295.800781 74.605469 265.429688 59.898438 217.265625 C 47.171875 175.585938 39.734375 133.6875 39.148438 121.933594 C 37.289062 84.769531 46.300781 58.871094 65.9375 44.949219 C 97.890625 22.300781 150.425781 35.855469 171.535156 42.734375 C 171.230469 43.03125 170.914062 43.3125 170.617188 43.617188 C 135.972656 78.585938 136.796875 138.332031 136.882812 141.984375 C 136.878906 143.394531 136.996094 145.390625 137.160156 148.132812 C 137.753906 158.183594 138.863281 176.886719 135.902344 198.074219 C 133.148438 217.742188 139.21875 237.019531 152.550781 250.914062 C 153.929688 252.359375 155.371094 253.710938 156.859375 254.976562 C 150.925781 261.332031 138.027344 275.390625 124.296875 291.898438 Z M 161.3125 242.515625 C 150.566406 231.324219 145.683594 215.71875 147.921875 199.753906 C 151.050781 177.367188 149.894531 157.882812 149.273438 147.414062 C 149.1875 145.949219 149.109375 144.667969 149.066406 143.652344 C 154.125 139.167969 177.578125 126.609375 194.292969 130.4375 C 201.933594 132.1875 206.578125 137.378906 208.519531 146.316406 C 218.515625 192.574219 209.839844 211.851562 202.871094 227.355469 C 201.421875 230.535156 200.074219 233.5625 198.902344 236.675781 L 198.015625 239.09375 C 195.726562 245.199219 193.617188 250.863281 192.300781 256.246094 C 180.871094 256.210938 169.765625 251.339844 161.3125 242.515625 Z M 163.066406 304.921875 C 159.730469 304.082031 156.730469 302.632812 154.96875 301.429688 C 156.441406 300.738281 159.058594 299.800781 163.59375 298.863281 C 185.566406 294.351562 188.957031 291.160156 196.351562 281.761719 C 198.0625 279.605469 199.972656 277.152344 202.640625 274.1875 L 202.640625 274.171875 C 206.628906 269.726562 208.4375 270.484375 211.730469 271.851562 C 214.398438 272.953125 217 276.296875 218.054688 279.980469 C 218.550781 281.710938 219.109375 285.019531 217.28125 287.585938 C 201.800781 309.234375 179.257812 308.96875 163.066406 304.921875 Z M 278.015625 411.832031 C 251.140625 417.578125 241.621094 403.882812 235.363281 388.210938 C 231.3125 378.105469 229.320312 332.492188 230.734375 282.121094 C 230.753906 281.464844 230.652344 280.804688 230.472656 280.195312 C 230.308594 279.027344 230.0625 277.84375 229.714844 276.640625 C 227.625 269.316406 222.519531 263.191406 216.375 260.640625 C 213.9375 259.636719 209.460938 257.777344 204.089844 259.160156 C 205.242188 254.433594 207.21875 249.101562 209.378906 243.339844 L 210.28125 240.902344 C 211.304688 238.171875 212.570312 235.324219 213.9375 232.328125 C 221.234375 216.113281 231.230469 193.910156 220.378906 143.753906 C 216.308594 124.964844 202.742188 115.789062 182.171875 117.921875 C 169.832031 119.195312 158.546875 124.171875 152.917969 127.023438 C 151.707031 127.636719 150.601562 128.226562 149.566406 128.804688 C 151.136719 109.875 157.074219 74.496094 179.273438 52.117188 C 193.253906 38.023438 211.863281 31.0625 234.554688 31.4375 C 279.25 32.167969 307.902344 55.097656 324.074219 74.203125 C 338.023438 90.664062 345.5625 107.25 348.578125 116.191406 C 325.933594 113.890625 310.519531 118.359375 302.714844 129.519531 C 285.722656 153.796875 312.003906 200.921875 324.632812 223.554688 C 326.957031 227.703125 328.949219 231.292969 329.589844 232.820312 C 333.691406 242.78125 339.027344 249.429688 342.914062 254.304688 C 344.097656 255.785156 345.269531 257.234375 346.140625 258.484375 C 339.273438 260.460938 326.957031 265.035156 328.074219 287.867188 C 327.171875 299.324219 320.730469 352.953125 317.453125 371.914062 C 313.140625 396.953125 303.917969 406.269531 278.015625 411.832031 Z M 390.160156 283.539062 C 383.144531 286.796875 371.402344 289.234375 360.253906 289.761719 C 347.9375 290.335938 341.660156 288.378906 340.195312 287.175781 C 339.503906 272.953125 344.789062 271.457031 350.40625 269.890625 C 351.277344 269.644531 352.152344 269.398438 352.976562 269.117188 C 353.484375 269.53125 354.0625 269.941406 354.671875 270.351562 C 364.566406 276.886719 382.238281 277.59375 407.152344 272.441406 C 407.253906 272.425781 407.351562 272.410156 407.433594 272.394531 C 404.074219 275.539062 398.328125 279.75 390.160156 283.539062 Z M 390.160156 283.539062 " fill-opacity="1" fill-rule="nonzero"/><g fill="#5ce1e6" fill-opacity="1"><g transform="translate(85.179308, 541.054226)"><g><path d="M 84.625 -48.515625 L 84.625 -29.71875 C 82.382812 -19.425781 77.484375 -11.632812 69.921875 -6.34375 C 62.367188 -1.0625 53.9375 1.578125 44.625 1.578125 C 32.9375 1.578125 22.976562 -2.796875 14.75 -11.546875 C 6.53125 -20.296875 2.421875 -30.867188 2.421875 -43.265625 C 2.421875 -55.859375 6.441406 -66.492188 14.484375 -75.171875 C 22.535156 -83.859375 32.582031 -88.203125 44.625 -88.203125 C 58.695312 -88.203125 69.828125 -83.265625 78.015625 -73.390625 L 65.09375 -59.21875 C 60.476562 -66.632812 54.039062 -70.34375 45.78125 -70.34375 C 39.6875 -70.34375 34.488281 -67.703125 30.1875 -62.421875 C 25.882812 -57.140625 23.734375 -50.753906 23.734375 -43.265625 C 23.734375 -35.910156 25.882812 -29.625 30.1875 -24.40625 C 34.488281 -19.195312 39.6875 -16.59375 45.78125 -16.59375 C 50.820312 -16.59375 55.210938 -18.113281 58.953125 -21.15625 C 62.703125 -24.195312 64.578125 -28.238281 64.578125 -33.28125 L 44.625 -33.28125 L 44.625 -48.515625 Z M 84.625 -48.515625 "/></g></g></g><g fill="#5ce1e6" fill-opacity="1"><g transform="translate(172.214585, 541.054226)"><g><path d="M 55.859375 -86.625 L 55.859375 -69.296875 L 26.046875 -69.296875 L 26.046875 -52.078125 L 54.59375 -52.078125 L 54.59375 -34.75 L 26.046875 -34.75 L 26.046875 -17.328125 L 55.859375 -17.328125 L 55.859375 0 L 6.296875 0 L 6.296875 -86.625 Z M 55.859375 -86.625 "/></g></g></g><g fill="#5ce1e6" fill-opacity="1"><g transform="translate(233.10778, 541.054226)"><g><path d="M 50.296875 -86.625 L 85.265625 0 L 64.046875 0 L 57.640625 -17.328125 L 24.671875 -17.328125 L 18.265625 0 L -2.9375 0 L 32.03125 -86.625 Z M 50.921875 -34.65625 L 41.265625 -59.84375 L 41.0625 -59.84375 L 31.390625 -34.65625 Z M 50.921875 -34.65625 "/></g></g></g><g fill="#5ce1e6" fill-opacity="1"><g transform="translate(315.418581, 541.054226)"><g><path d="M 72.875 -86.625 L 72.875 -30.765625 C 72.875 -20.128906 70.003906 -12.078125 64.265625 -6.609375 C 58.523438 -1.148438 50.125 1.578125 39.0625 1.578125 C 28 1.578125 19.597656 -1.148438 13.859375 -6.609375 C 8.117188 -12.078125 5.25 -20.128906 5.25 -30.765625 L 5.25 -86.625 L 24.984375 -86.625 L 24.984375 -36.546875 C 24.984375 -29.546875 26.085938 -24.675781 28.296875 -21.9375 C 30.503906 -19.207031 34.09375 -17.84375 39.0625 -17.84375 C 44.03125 -17.84375 47.613281 -19.207031 49.8125 -21.9375 C 52.019531 -24.675781 53.125 -29.546875 53.125 -36.546875 L 53.125 -86.625 Z M 72.875 -86.625 "/></g></g></g><g fill="#5ce1e6" fill-opacity="1"><g transform="translate(393.529858, 541.054226)"><g><path d="M 87.359375 0 L 61.84375 0 L 41.375 -29.5 L 20.890625 0 L -3.5625 0 L 29.1875 -46.625 L 1.890625 -86.625 L 25.40625 -86.625 L 41.375 -63 L 57.328125 -86.625 L 81.90625 -86.625 L 53.546875 -46.625 Z M 87.359375 0 "/></g></g></g></svg>